<svg width="39" height="40" viewBox="0 0 39 40" fill="none" xmlns="http://www.w3.org/2000/svg">
<path fill-rule="evenodd" clip-rule="evenodd" d="M11.7967 11.533H9.63787C8.14612 11.533 6.90787 12.6859 6.80143 14.1744L5.40882 33.6744C5.35275 34.4617 5.62574 35.2368 6.16362 35.8145C6.7023 36.3922 7.4555 36.7205 8.24525 36.7205H30.7547C31.5445 36.7205 32.2977 36.3922 32.8364 35.8145C33.3742 35.2368 33.6472 34.4617 33.5912 33.6744L32.1986 14.1744C32.0921 12.6859 30.8539 11.533 29.3621 11.533H27.2187V11.1267C27.2187 6.86352 23.7632 3.40796 19.5 3.40796C15.3928 3.40796 11.5968 6.67908 11.7812 11.1267C11.7869 11.2616 11.7918 11.3973 11.7967 11.533ZM27.2187 13.9705V20.0642C27.2187 20.737 26.6727 21.283 26 21.283C25.3272 21.283 24.7812 20.737 24.7812 20.0642V13.9705H14.2187V20.0642C14.2187 20.737 13.6727 21.283 13 21.283C12.3272 21.283 11.7812 20.737 11.7812 20.0642C11.7812 20.0642 11.8869 17.2164 11.8519 13.9705H9.63787C9.42499 13.9705 9.24788 14.1354 9.23325 14.3475L7.83979 33.8475C7.83167 33.9604 7.87069 34.0709 7.94788 34.1538C8.02507 34.2358 8.13231 34.283 8.24525 34.283H30.7547C30.8677 34.283 30.9749 34.2358 31.0521 34.1538C31.1293 34.0709 31.1683 33.9604 31.1602 33.8475L29.7667 14.3475C29.7521 14.1354 29.575 13.9705 29.3621 13.9705H27.2187ZM24.7812 11.533V11.1267C24.7812 8.20983 22.4169 5.84546 19.5 5.84546C16.5831 5.84546 14.2187 8.20983 14.2187 11.1267V11.533H24.7812Z" fill="black"/>
</svg>
