<svg width="88" height="89" viewBox="0 0 88 89" fill="none" xmlns="http://www.w3.org/2000/svg">
<rect x="8.5" y="8.66992" width="79" height="79" rx="14.5" stroke="#652DBF" stroke-dasharray="3 2"/>
<rect width="80" height="80" rx="15" fill="white"/>
<g clip-path="url(#clip0_703_1647)">
<g clip-path="url(#clip1_703_1647)">
<path fill-rule="evenodd" clip-rule="evenodd" d="M39.0253 21.1875H40.9727C44.1889 21.1875 46.7362 21.1875 48.7298 21.4555C50.7815 21.7313 52.4422 22.3125 53.7519 23.6222C55.0615 24.9318 55.6426 26.5925 55.9186 28.6442C56.1865 30.6378 56.1865 33.1852 56.1865 36.4013V48.75C56.1865 48.8935 56.1634 49.0316 56.1209 49.1609C55.9361 49.9292 55.2445 50.5 54.4194 50.5C52.9697 50.5 51.7944 51.6753 51.7944 53.125C51.7944 54.5747 52.9697 55.75 54.4194 55.75C55.3859 55.75 56.1694 56.5335 56.1694 57.5C56.1694 58.4343 55.4374 59.1975 54.5155 59.2474C54.491 59.2488 54.4663 59.2495 54.4416 59.2498L54.4194 59.25H29.8664C26.4946 59.25 23.8047 56.4836 23.8047 53.125C23.8047 53.0268 23.807 52.9294 23.8115 52.8322V36.4012C23.8115 33.1852 23.8115 30.6378 24.0795 28.6442C24.3554 26.5925 24.9366 24.9318 26.2462 23.6222C27.5558 22.3125 29.2165 21.7313 31.2682 21.4555C33.2618 21.1875 35.8092 21.1875 39.0253 21.1875ZM29.8664 50.5H48.884C48.506 51.2955 48.2944 52.1856 48.2944 53.125C48.2944 54.0644 48.506 54.9544 48.884 55.75H29.8664C28.4756 55.75 27.3047 54.5989 27.3047 53.125C27.3047 51.6511 28.4756 50.5 29.8664 50.5ZM45.788 37.9742C46.2535 37.4481 46.2327 36.6174 45.7417 36.1188C45.4996 35.873 45.1885 35.7537 44.8794 35.759H41.749V29.9375C41.749 28.971 40.9656 28.1875 39.999 28.1875C39.0325 28.1875 38.249 28.971 38.249 29.9375V35.759H35.079C34.7831 35.7641 34.488 35.8835 34.2563 36.1188C33.7653 36.6174 33.7445 37.4481 34.2099 37.9742L36.5643 40.6356C37.1311 41.2766 37.639 41.8508 38.1055 42.2531C38.6118 42.6898 39.2222 43.0625 39.999 43.0625C40.7759 43.0625 41.3863 42.6898 41.8925 42.2531C42.3591 41.8508 42.8669 41.2766 43.4338 40.6356L45.788 37.9742Z" fill="#652DBF"/>
</g>
</g>
<defs>
<clipPath id="clip0_703_1647">
<rect width="43" height="42" fill="white" transform="translate(18.5 19)"/>
</clipPath>
<clipPath id="clip1_703_1647">
<rect width="43" height="42" fill="white" transform="translate(18.5 19)"/>
</clipPath>
</defs>
</svg>
